<svg display="block" role="presentation" viewBox="0 0 20 20" xmlns="http://www.w3.org/2000/svg"><g d="M 0 20 L 0 0 L 20 0 L 20 20 Z M 15 14 L 15 6 C 15 5.448 14.552 5 14 5 L 13.95 5 C 13.684 5 13.43 5.105 13.243 5.293 L 5.293 13.243 C 5.105 13.43 5 13.684 5 13.95 L 5 20 L 0 20 L 0 13.95 C 0 12.358 0.632 10.832 1.757 9.707 L 9.707 1.757 C 10.832 0.632 12.358 0 13.95 0 L 14 0 C 17.314 0 20 2.686 20 6 L 20 14 C 20 17.314 17.314 20 14 20 L 7 20 L 7 15 L 14 15 C 14.552 15 15 14.552 15 14 Z M 0 0 L 8.5 0 L 3.5 5 L 0 5 Z" fill="transparent" height="20px" id="Dqt_34QYZ" width="20px"><path d="M 0 20 L 0 0 L 20 0 L 20 20 Z" fill="transparent" height="20px" id="RbfLKncR4" width="20px"/><path d="M 15 14 L 15 6 C 15 5.448 14.552 5 14 5 L 13.95 5 C 13.684 5 13.43 5.105 13.243 5.293 L 5.293 13.243 C 5.105 13.43 5 13.684 5 13.95 L 5 20 L 0 20 L 0 13.95 C 0 12.358 0.632 10.832 1.757 9.707 L 9.707 1.757 C 10.832 0.632 12.358 0 13.95 0 L 14 0 C 17.314 0 20 2.686 20 6 L 20 14 C 20 17.314 17.314 20 14 20 L 7 20 L 7 15 L 14 15 C 14.552 15 15 14.552 15 14 Z M 0 0 L 8.5 0 L 3.5 5 L 0 5 Z" fill="rgb(153, 153, 153)" height="20px" id="Hp6iCfzCR" width="20px"/></g></svg>