<svg display="block" role="presentation" viewBox="0 0 20 20" xmlns="http://www.w3.org/2000/svg"><path d="M 15.152 18.29 C 17.161 16.281 18.29 13.556 18.29 10.714 C 18.29 7.873 17.161 5.147 15.152 3.138 C 13.143 1.129 10.417 0 7.576 0 C 4.734 0 2.009 1.129 0 3.138 L 3.535 6.674 C 4.093 7.232 4.994 7.204 5.704 6.859 C 6.282 6.578 6.921 6.429 7.576 6.429 C 8.713 6.429 9.803 6.88 10.606 7.684 C 11.41 8.488 11.862 9.578 11.862 10.714 C 11.862 11.369 11.712 12.008 11.431 12.586 C 11.086 13.296 11.059 14.197 11.616 14.755 Z" fill="rgb(153, 153, 153)" height="18.290464285714286px" id="otfBlshXE" transform="translate(1.71 0)" width="18.289953571428565px"/><path d="M 15 15 L 9.755 15 C 8.997 15 8.27 14.699 7.734 14.163 L 0.837 7.265 C 0.301 6.73 0 6.003 0 5.245 L 0 0 Z" fill="rgb(153, 153, 153)" height="15px" id="UOznjOXHT" transform="translate(0 5)" width="14.99960714285714px"/><path d="M 5.357 5.357 L 2.143 5.357 C 0.959 5.357 0 4.398 0 3.214 L 0 0 Z" fill="rgb(153, 153, 153)" height="5.357142857142861px" id="FXgBLOAb4" transform="translate(0 14.642)" width="5.356999999999996px"/></svg>