<svg display="block" role="presentation" viewBox="0 0 20 20" xmlns="http://www.w3.org/2000/svg"><path d="M 17.254 6.668 L 17.254 3.892 C 17.253 2.8 16.368 1.915 15.276 1.914 L 14.755 1.914 L 14.755 1.602 C 14.751 0.716 14.031 0 13.145 0 C 12.26 0 11.54 0.716 11.535 1.602 L 11.535 1.914 L 5.719 1.914 L 5.719 1.602 C 5.714 0.716 4.995 0 4.109 0 C 3.223 0 2.503 0.716 2.499 1.602 L 2.499 1.914 L 1.978 1.914 C 0.886 1.915 0.001 2.8 0 3.892 L 0 16.022 C 0.001 17.114 0.886 17.999 1.978 18 L 15.276 18 C 16.368 17.999 17.253 17.114 17.254 16.022 L 17.254 6.954 C 17.285 6.861 17.285 6.761 17.254 6.668 Z M 13.145 0.892 C 13.537 0.893 13.854 1.21 13.855 1.602 L 13.855 2.55 C 13.852 2.939 13.535 3.254 13.145 3.254 C 12.755 3.254 12.439 2.939 12.436 2.55 L 12.436 1.602 C 12.436 1.21 12.754 0.892 13.145 0.892 Z M 3.399 1.602 C 3.402 1.212 3.719 0.898 4.108 0.898 C 4.498 0.898 4.815 1.212 4.818 1.602 L 4.818 2.55 C 4.815 2.939 4.498 3.254 4.108 3.254 C 3.719 3.254 3.402 2.939 3.399 2.55 Z M 1.978 2.814 L 2.521 2.814 C 2.65 3.591 3.321 4.16 4.108 4.16 C 4.895 4.16 5.567 3.591 5.696 2.814 L 11.557 2.814 C 11.687 3.591 12.358 4.16 13.145 4.16 C 13.932 4.16 14.604 3.591 14.733 2.814 L 15.276 2.814 C 15.871 2.815 16.353 3.297 16.354 3.892 L 16.354 6.361 L 0.9 6.361 L 0.9 3.892 C 0.901 3.297 1.383 2.815 1.978 2.814 Z M 15.276 17.1 L 1.978 17.1 C 1.383 17.099 0.901 16.617 0.9 16.022 L 0.9 7.261 L 16.354 7.261 L 16.354 16.022 C 16.353 16.617 15.871 17.099 15.276 17.1 Z" fill="rgb(18, 18, 18)" height="17.9999376px" id="f4gmr4IFB" transform="translate(1.481 1.014)" width="17.27738800000001px"/><path d="M 5.221 0.127 L 2.265 3.013 L 0.765 1.548 C 0.588 1.375 0.305 1.377 0.131 1.552 C -0.043 1.727 -0.044 2.01 0.13 2.186 L 0.136 2.192 L 1.951 3.964 C 2.126 4.135 2.405 4.135 2.58 3.964 L 5.85 0.771 C 6.027 0.598 6.03 0.315 5.858 0.137 C 5.686 -0.041 5.403 -0.046 5.224 0.125 L 5.221 0.127 Z" fill="rgb(18, 18, 18)" height="4.092283363873696px" id="NCMjhszj6" transform="translate(7.127 10.998)" width="5.984975776539136px"/></svg>