<svg display="block" role="presentation" viewBox="0 0 100 100" xmlns="http://www.w3.org/2000/svg"><g d="M 0 48 L 0 0 L 53 0 L 53 48 Z M 7.252 36.285 C 9.195 37.642 12.346 37.642 14.29 36.285 C 16.233 34.928 16.233 32.727 14.29 31.37 C 12.346 30.013 9.195 30.013 7.252 31.37 C 5.308 32.727 5.308 34.928 7.252 36.285 Z M 27.425 17.857 C 30.34 19.892 35.067 19.892 37.982 17.857 C 40.898 15.821 40.898 12.521 37.982 10.486 C 35.067 8.45 30.34 8.45 27.425 10.486 C 24.51 12.521 24.51 15.821 27.425 17.857 Z M 16.715 27.072 C 19.144 28.768 23.083 28.768 25.512 27.072 C 27.942 25.376 27.942 22.626 25.512 20.929 C 23.083 19.233 19.144 19.233 16.715 20.929 C 14.285 22.626 14.285 25.376 16.715 27.072 Z M 1.093 25.844 C 2.551 26.861 4.914 26.861 6.372 25.844 C 7.83 24.826 7.83 23.176 6.372 22.158 C 4.914 21.14 2.551 21.14 1.093 22.158 C -0.364 23.176 -0.364 24.826 1.093 25.844 Z M 16.715 7.415 C 19.144 9.111 23.083 9.111 25.512 7.415 C 27.942 5.719 27.942 2.968 25.512 1.272 C 23.083 -0.424 19.144 -0.424 16.715 1.272 C 14.285 2.968 14.285 5.719 16.715 7.415 Z M 7.252 16.627 C 9.195 17.984 12.346 17.984 14.29 16.627 C 16.233 15.27 16.233 13.07 14.29 11.713 C 12.346 10.356 9.195 10.356 7.252 11.713 C 5.308 13.07 5.308 15.27 7.252 16.627 Z M 16.715 46.729 C 19.144 48.426 23.083 48.426 25.512 46.729 C 27.942 45.033 27.942 42.283 25.512 40.587 C 23.083 38.89 19.144 38.89 16.715 40.587 C 14.285 42.283 14.285 45.033 16.715 46.729 Z M 40.255 27.687 C 43.171 29.722 47.897 29.722 50.813 27.687 C 53.728 25.652 53.728 22.351 50.813 20.316 C 47.897 18.28 43.171 18.28 40.255 20.316 C 37.34 22.351 37.34 25.652 40.255 27.687 Z M 27.425 37.514 C 30.34 39.55 35.067 39.55 37.982 37.514 C 40.898 35.479 40.898 32.178 37.982 30.143 C 35.067 28.107 30.34 28.107 27.425 30.143 C 24.51 32.178 24.51 35.479 27.425 37.514 Z" fill="transparent" height="48.00147431030211px" id="Of9eXXuNB" transform="translate(24.1 14)" width="53.00007500000356px"><path d="M 0 48 L 0 0 L 53 0 L 53 48 Z" fill="transparent" height="48px" id="nbJZkGhI7" transform="translate(0 0)" width="53px"/><path d="M 1.458 5.932 C 3.401 7.289 6.552 7.289 8.496 5.932 C 10.439 4.575 10.439 2.375 8.496 1.018 C 6.552 -0.339 3.401 -0.339 1.458 1.018 C -0.486 2.375 -0.486 4.575 1.458 5.932 Z" fill="rgb(102, 102, 102)" height="6.9497px" id="bIBRadbme" transform="translate(5.794 30.353)" width="9.953550000000002px"/><path d="M 2.186 8.898 C 5.102 10.933 9.828 10.933 12.744 8.898 C 15.659 6.862 15.659 3.562 12.744 1.527 C 9.828 -0.509 5.102 -0.509 2.186 1.527 C -0.729 3.562 -0.729 6.862 2.186 8.898 Z" fill="rgb(102, 102, 102)" height="10.42445px" id="Y8Ygg7Uun" transform="translate(25.239 8.959)" width="14.930200000000006px"/><path d="M 1.822 7.415 C 4.251 9.111 8.19 9.111 10.62 7.415 C 13.049 5.719 13.049 2.968 10.62 1.272 C 8.19 -0.424 4.251 -0.424 1.822 1.272 C -0.607 2.968 -0.607 5.719 1.822 7.415 Z" fill="rgb(102, 102, 102)" height="8.687000000000005px" id="pvM04r5st" transform="translate(14.893 19.657)" width="12.441875000000007px"/><path d="M 1.093 4.449 C 2.551 5.467 4.914 5.467 6.372 4.449 C 7.83 3.431 7.83 1.781 6.372 0.763 C 4.914 -0.254 2.551 -0.254 1.093 0.763 C -0.364 1.781 -0.364 3.431 1.093 4.449 Z" fill="rgb(102, 102, 102)" height="5.212250000000001px" id="YNHLNtOOJ" transform="translate(0 21.395)" width="7.4651749999999995px"/><path d="M 1.822 7.415 C 4.251 9.111 8.19 9.111 10.62 7.415 C 13.049 5.719 13.049 2.968 10.62 1.272 C 8.19 -0.424 4.251 -0.424 1.822 1.272 C -0.607 2.968 -0.607 5.719 1.822 7.415 Z" fill="rgb(102, 102, 102)" height="8.68705px" id="XrSiLc_1r" transform="translate(14.893 0)" width="12.441875000000007px"/><path d="M 1.458 5.932 C 3.401 7.289 6.552 7.289 8.496 5.932 C 10.439 4.575 10.439 2.375 8.496 1.018 C 6.552 -0.339 3.401 -0.339 1.458 1.018 C -0.486 2.375 -0.486 4.575 1.458 5.932 Z" fill="rgb(102, 102, 102)" height="6.9496px" id="RI7_YcTvx" transform="translate(5.794 10.695)" width="9.953487500241183px"/><path d="M 1.822 7.415 C 4.251 9.111 8.19 9.111 10.62 7.415 C 13.049 5.719 13.049 2.968 10.62 1.272 C 8.19 -0.424 4.251 -0.424 1.822 1.272 C -0.607 2.968 -0.607 5.719 1.822 7.415 Z" fill="rgb(102, 102, 102)" height="8.687000000000005px" id="XPrO24gLa" transform="translate(14.893 39.314)" width="12.441875000000007px"/><path d="M 2.186 8.898 C 5.102 10.933 9.828 10.933 12.744 8.898 C 15.659 6.862 15.659 3.562 12.744 1.527 C 9.828 -0.509 5.102 -0.509 2.186 1.527 C -0.729 3.562 -0.729 6.862 2.186 8.898 Z" fill="rgb(102, 102, 102)" height="10.424450000000004px" id="E3nYsZbQw" transform="translate(38.069 18.789)" width="14.930324999999996px"/><path d="M 2.186 8.898 C 5.102 10.933 9.828 10.933 12.744 8.898 C 15.659 6.862 15.659 3.562 12.744 1.527 C 9.828 -0.509 5.102 -0.509 2.186 1.527 C -0.729 3.562 -0.729 6.862 2.186 8.898 Z" fill="rgb(102, 102, 102)" height="10.424450000000007px" id="u0Hn12MjI" transform="translate(25.239 28.616)" width="14.930200000000006px"/></g><path d="M 1.883 0 L 1.883 8 L 0 8 L 0 0 Z" fill="rgb(102, 102, 102)" height="8px" id="WGWk97TV0" transform="translate(48.127 78)" width="1.882799999999996px"/><path d="M 1.883 5.894 L 9.309 5.894 L 9.309 7.789 L 0 7.789 L 0 0 L 1.883 0 Z" fill="rgb(102, 102, 102)" height="7.789200000000008px" id="f1DNZ5oeZ" transform="translate(2 78.21)" width="9.3094px"/><path d="M 8.368 5.526 C 8.368 5.207 8.11 4.947 7.793 4.947 L 2.458 4.947 C 1.1 4.947 0 3.84 0 2.474 C 0 1.108 1.1 0 2.458 0 L 10.041 0 L 10.041 1.895 L 2.458 1.895 C 2.14 1.895 1.882 2.154 1.882 2.474 C 1.882 2.793 2.14 3.053 2.458 3.053 L 7.793 3.053 C 9.15 3.053 10.251 4.16 10.251 5.526 C 10.251 6.892 9.15 8 7.793 8 L 0.209 8 L 0.209 6.105 L 7.793 6.105 C 8.11 6.105 8.368 5.846 8.368 5.526 Z" fill="rgb(102, 102, 102)" height="8px" id="rZUOgo8no" transform="translate(61.621 78)" width="10.250500000000002px"/><path d="M 7.583 0 C 9.23 0 10.565 1.343 10.565 3 C 10.565 4.657 9.23 6 7.583 6 L 1.883 6 L 1.883 8 L 0 8 L 0 0 Z M 1.883 4.105 L 7.583 4.105 C 8.19 4.105 8.682 3.61 8.682 3 C 8.682 2.39 8.19 1.895 7.583 1.895 L 1.883 1.895 Z" fill="rgb(102, 102, 102)" height="8px" id="PbQFJWNdR" transform="translate(50.64 78)" width="10.564700000000002px"/><path d="M 10.146 4 C 10.146 2.837 9.209 1.895 8.054 1.895 L 3.975 1.895 C 2.819 1.895 1.883 2.837 1.883 4 C 1.883 5.163 2.819 6.105 3.975 6.105 L 8.054 6.105 C 9.209 6.105 10.146 5.163 10.146 4 Z M 12.029 4 C 12.029 6.209 10.249 8 8.054 8 L 3.975 8 C 1.78 8 0 6.209 0 4 C 0 1.791 1.78 0 3.975 0 L 8.054 0 C 10.249 0 12.029 1.791 12.029 4 Z" fill="rgb(102, 102, 102)" height="8px" id="i6HtqmdfH" transform="translate(11.1 78)" width="12.028799999999999px"/><path d="M 10.146 4 C 10.146 2.837 9.209 1.895 8.054 1.895 L 3.975 1.895 C 2.819 1.895 1.883 2.837 1.883 4 C 1.883 5.163 2.819 6.105 3.975 6.105 L 8.054 6.105 C 9.209 6.105 10.146 5.163 10.146 4 Z M 12.029 4 C 12.029 6.209 10.249 8 8.054 8 L 3.975 8 C 1.78 8 0 6.209 0 4 C 0 1.791 1.78 0 3.975 0 L 8.054 0 C 10.249 0 12.029 1.791 12.029 4 Z" fill="rgb(102, 102, 102)" height="8px" id="QtWjfjGSr" transform="translate(35.576 78)" width="12.028599999999997px"/><path d="M 0 4.632 L 0 0 L 1.883 0 L 1.883 4.632 C 1.883 5.445 2.538 6.105 3.347 6.105 L 8.681 6.105 C 9.49 6.105 10.146 5.445 10.146 4.632 L 10.146 0 L 12.029 0 L 12.029 4.632 C 12.029 6.492 10.53 8 8.681 8 L 3.347 8 C 1.499 8 0 6.492 0 4.632 Z" fill="rgb(102, 102, 102)" height="8px" id="ppBGIRPBv" transform="translate(72.29 78)" width="12.0287px"/><path d="M 0 4 C 0 1.791 1.779 0 3.974 0 L 11.401 0 L 11.401 1.895 L 3.974 1.895 C 2.819 1.895 1.882 2.837 1.882 4 C 1.882 5.163 2.819 6.105 3.974 6.105 L 9.571 6.105 C 9.888 6.105 10.146 5.846 10.146 5.526 C 10.146 5.207 9.888 4.947 9.571 4.947 L 3.451 4.947 L 3.451 3.053 L 9.571 3.053 C 10.928 3.053 12.029 4.16 12.029 5.526 C 12.029 6.892 10.928 8 9.571 8 L 3.974 8 C 1.779 8 0 6.209 0 4 Z" fill="rgb(102, 102, 102)" height="8px" id="JzkwICjo1" transform="translate(23.443 78)" width="12.028699999999997px"/><path d="M 10.729 0 C 11.714 0 12.586 0.643 12.882 1.589 L 14.89 8 L 12.916 8 L 11.086 2.159 C 11.037 2.002 10.892 1.895 10.729 1.895 C 10.568 1.895 10.426 1.997 10.374 2.148 L 10.365 2.179 L 9.251 6.554 C 9.035 7.405 8.272 8 7.399 8 C 6.512 8 5.741 7.385 5.538 6.515 L 4.528 2.177 C 4.49 2.012 4.343 1.895 4.175 1.895 C 4.017 1.895 3.877 1.998 3.829 2.149 L 1.976 8 L 0 8 L 2.035 1.574 C 2.332 0.636 3.197 0 4.175 0 C 5.218 0 6.124 0.723 6.362 1.745 L 7.371 6.083 C 7.375 6.096 7.386 6.105 7.399 6.105 C 7.413 6.105 7.424 6.096 7.427 6.084 L 8.541 1.709 L 8.553 1.662 C 8.825 0.681 9.713 0 10.729 0 Z" fill="rgb(102, 102, 102)" height="8px" id="KZ2dmFest" transform="translate(84.109 78)" width="14.89030000000001px"/></svg>