<svg display="block" role="presentation" viewBox="0 0 100 100" xmlns="http://www.w3.org/2000/svg"><path d="M 36.365 43.897 C 41.187 39.074 43.897 32.534 43.897 25.714 C 43.897 18.894 41.187 12.354 36.365 7.532 C 31.543 2.709 25.002 0 18.182 0 C 11.363 0 4.822 2.709 0 7.531 L 8.485 16.017 C 9.824 17.355 11.986 17.289 13.69 16.462 C 15.077 15.788 16.611 15.428 18.182 15.428 C 20.91 15.428 23.527 16.512 25.456 18.441 C 27.385 20.37 28.468 22.986 28.468 25.714 C 28.468 27.285 28.109 28.82 27.435 30.207 C 26.608 31.91 26.541 34.072 27.88 35.411 Z" fill="rgb(102, 102, 102)" height="43.8965px" id="X_iYyh9DY" transform="translate(30.604 14)" width="43.8965px"/><path d="M 35.999 35.999 L 23.411 35.999 C 21.593 35.999 19.849 35.277 18.563 33.991 L 2.008 17.437 C 0.722 16.151 0 14.407 0 12.588 L 0 0 Z" fill="rgb(102, 102, 102)" height="35.9995px" id="corsBIujZ" transform="translate(26.5 26)" width="35.9995px"/><path d="M 12.857 12.857 L 5.143 12.857 C 2.302 12.857 0 10.555 0 7.714 L 0 0 Z" fill="rgb(102, 102, 102)" height="12.857px" id="k2UwznKYW" transform="translate(26.5 49.145)" width="12.857px"/><path d="M 1.883 0 L 1.883 8 L 0 8 L 0 0 Z" fill="rgb(102, 102, 102)" height="8px" id="K9uGRF4SQ" transform="translate(48.127 78)" width="1.882799999999996px"/><path d="M 1.883 5.894 L 9.309 5.894 L 9.309 7.789 L 0 7.789 L 0 0 L 1.883 0 Z" fill="rgb(102, 102, 102)" height="7.789200000000008px" id="bNHZGYIbS" transform="translate(2 78.21)" width="9.3094px"/><path d="M 8.368 5.526 C 8.368 5.207 8.11 4.947 7.792 4.947 L 2.458 4.947 C 1.1 4.947 0 3.84 0 2.474 C 0 1.108 1.1 0 2.458 0 L 10.041 0 L 10.041 1.895 L 2.458 1.895 C 2.14 1.895 1.882 2.154 1.882 2.474 C 1.882 2.793 2.14 3.053 2.458 3.053 L 7.792 3.053 C 9.15 3.053 10.25 4.16 10.25 5.526 C 10.25 6.892 9.15 8 7.792 8 L 0.209 8 L 0.209 6.105 L 7.792 6.105 C 8.11 6.105 8.368 5.846 8.368 5.526 Z" fill="rgb(102, 102, 102)" height="8px" id="xg_rxg18z" transform="translate(61.621 78)" width="10.250400000000006px"/><path d="M 7.583 0 C 9.23 0 10.565 1.343 10.565 3 C 10.565 4.657 9.23 6 7.583 6 L 1.883 6 L 1.883 8 L 0 8 L 0 0 Z M 1.883 4.105 L 7.583 4.105 C 8.19 4.105 8.682 3.61 8.682 3 C 8.682 2.39 8.19 1.895 7.583 1.895 L 1.883 1.895 Z" fill="rgb(102, 102, 102)" height="8px" id="OQB2xpqDV" transform="translate(50.64 78)" width="10.564700000000002px"/><path d="M 10.146 4 C 10.146 2.837 9.209 1.895 8.054 1.895 L 3.975 1.895 C 2.819 1.895 1.883 2.837 1.883 4 C 1.883 5.163 2.819 6.105 3.975 6.105 L 8.054 6.105 C 9.209 6.105 10.146 5.163 10.146 4 Z M 12.029 4 C 12.029 6.209 10.249 8 8.054 8 L 3.975 8 C 1.78 8 0 6.209 0 4 C 0 1.791 1.78 0 3.975 0 L 8.054 0 C 10.249 0 12.029 1.791 12.029 4 Z" fill="rgb(102, 102, 102)" height="8px" id="pKZlMQODM" transform="translate(11.1 78)" width="12.028799999999999px"/><path d="M 10.146 4 C 10.146 2.837 9.209 1.895 8.054 1.895 L 3.975 1.895 C 2.819 1.895 1.883 2.837 1.883 4 C 1.883 5.163 2.819 6.105 3.975 6.105 L 8.054 6.105 C 9.209 6.105 10.146 5.163 10.146 4 Z M 12.029 4 C 12.029 6.209 10.249 8 8.054 8 L 3.975 8 C 1.78 8 0 6.209 0 4 C 0 1.791 1.78 0 3.975 0 L 8.054 0 C 10.249 0 12.029 1.791 12.029 4 Z" fill="rgb(102, 102, 102)" height="8px" id="iAJHLErV_" transform="translate(35.576 78)" width="12.028599999999997px"/><path d="M 0 4.632 L 0 0 L 1.883 0 L 1.883 4.632 C 1.883 5.445 2.538 6.105 3.347 6.105 L 8.681 6.105 C 9.49 6.105 10.146 5.445 10.146 4.632 L 10.146 0 L 12.029 0 L 12.029 4.632 C 12.029 6.492 10.53 8 8.681 8 L 3.347 8 C 1.499 8 0 6.492 0 4.632 Z" fill="rgb(102, 102, 102)" height="8px" id="BCTYTtUkV" transform="translate(72.29 78)" width="12.0287px"/><path d="M 0 4 C 0 1.791 1.779 0 3.974 0 L 11.401 0 L 11.401 1.895 L 3.974 1.895 C 2.819 1.895 1.882 2.837 1.882 4 C 1.882 5.163 2.819 6.105 3.974 6.105 L 9.571 6.105 C 9.888 6.105 10.146 5.846 10.146 5.526 C 10.146 5.207 9.888 4.947 9.571 4.947 L 3.451 4.947 L 3.451 3.053 L 9.571 3.053 C 10.928 3.053 12.029 4.16 12.029 5.526 C 12.029 6.892 10.928 8 9.571 8 L 3.974 8 C 1.779 8 0 6.209 0 4 Z" fill="rgb(102, 102, 102)" height="8px" id="J6ZXui_cu" transform="translate(23.443 78)" width="12.028699999999997px"/><path d="M 10.729 0 C 11.714 0 12.586 0.643 12.882 1.589 L 14.89 8 L 12.916 8 L 11.086 2.159 C 11.037 2.002 10.892 1.895 10.729 1.895 C 10.568 1.895 10.426 1.997 10.374 2.148 L 10.365 2.179 L 9.251 6.554 C 9.035 7.405 8.272 8 7.399 8 C 6.512 8 5.741 7.385 5.538 6.515 L 4.528 2.177 C 4.49 2.012 4.343 1.895 4.175 1.895 C 4.017 1.895 3.877 1.998 3.829 2.149 L 1.976 8 L 0 8 L 2.035 1.574 C 2.332 0.636 3.197 0 4.175 0 C 5.218 0 6.124 0.723 6.362 1.745 L 7.371 6.083 C 7.375 6.096 7.386 6.105 7.399 6.105 C 7.413 6.105 7.424 6.096 7.427 6.084 L 8.541 1.709 L 8.553 1.662 C 8.825 0.681 9.713 0 10.729 0 Z" fill="rgb(102, 102, 102)" height="8px" id="fzXjvUCGK" transform="translate(84.109 78)" width="14.89030000000001px"/></svg>