<svg display="block" role="presentation" viewBox="0 0 100 100" xmlns="http://www.w3.org/2000/svg"><path d="M 0 23.415 C 0 10.483 10.483 0 23.415 0 C 36.346 0 46.829 10.483 46.829 23.415 C 46.829 36.346 36.346 46.829 23.415 46.829 C 10.483 46.829 0 36.346 0 23.415 Z M 27.029 18.091 C 29.025 16.095 29.025 12.859 27.029 10.863 C 25.033 8.867 21.797 8.867 19.801 10.863 C 17.805 12.859 17.805 16.095 19.801 18.091 L 23.415 21.705 Z M 28.738 27.029 C 30.734 29.025 33.97 29.025 35.966 27.029 C 37.962 25.033 37.962 21.797 35.966 19.801 C 33.97 17.805 30.734 17.805 28.738 19.801 L 25.125 23.415 Z M 27.029 35.966 C 29.025 33.97 29.025 30.734 27.029 28.738 L 23.415 25.125 L 19.801 28.738 C 17.805 30.734 17.805 33.97 19.801 35.966 C 21.797 37.962 25.033 37.962 27.029 35.966 Z M 18.091 27.029 L 21.705 23.415 L 18.091 19.801 C 16.095 17.805 12.859 17.805 10.863 19.801 C 8.867 21.797 8.867 25.033 10.863 27.029 C 12.859 29.025 16.095 29.025 18.091 27.029 Z" fill="rgb(102, 102, 102)" height="46.8293px" id="a_OOMuS85" transform="translate(26.052 12.378)" width="46.8292px"/><path d="M 1.883 0 L 1.883 8 L 0 8 L 0 0 Z" fill="rgb(102, 102, 102)" height="8px" id="I9GkSYzKy" transform="translate(47.726 78)" width="1.8828000000000031px"/><path d="M 1.883 5.894 L 9.309 5.894 L 9.309 7.789 L 0 7.789 L 0 0 L 1.883 0 Z" fill="rgb(102, 102, 102)" height="7.789200000000008px" id="EpzlOnTtF" transform="translate(1.599 78.21)" width="9.30944px"/><path d="M 8.368 5.526 C 8.368 5.207 8.11 4.947 7.793 4.947 L 2.458 4.947 C 1.1 4.947 0 3.84 0 2.474 C 0 1.108 1.1 0 2.458 0 L 10.041 0 L 10.041 1.895 L 2.458 1.895 C 2.14 1.895 1.882 2.154 1.882 2.474 C 1.882 2.793 2.14 3.053 2.458 3.053 L 7.793 3.053 C 9.15 3.053 10.25 4.16 10.25 5.526 C 10.25 6.892 9.15 8 7.793 8 L 0.209 8 L 0.209 6.105 L 7.793 6.105 C 8.11 6.105 8.368 5.846 8.368 5.526 Z" fill="rgb(102, 102, 102)" height="8px" id="OJB8hZ8d3" transform="translate(61.22 78)" width="10.250499999999995px"/><path d="M 7.583 0 C 9.23 0 10.565 1.343 10.565 3 C 10.565 4.657 9.23 6 7.583 6 L 1.883 6 L 1.883 8 L 0 8 L 0 0 Z M 1.883 4.105 L 7.583 4.105 C 8.19 4.105 8.682 3.61 8.682 3 C 8.682 2.39 8.19 1.895 7.583 1.895 L 1.883 1.895 Z" fill="rgb(102, 102, 102)" height="8px" id="Sw7XMTn98" transform="translate(50.239 78)" width="10.564700000000002px"/><path d="M 10.146 4 C 10.146 2.837 9.209 1.895 8.054 1.895 L 3.975 1.895 C 2.819 1.895 1.883 2.837 1.883 4 C 1.883 5.163 2.819 6.105 3.975 6.105 L 8.054 6.105 C 9.209 6.105 10.146 5.163 10.146 4 Z M 12.029 4 C 12.029 6.209 10.249 8 8.054 8 L 3.975 8 C 1.779 8 0 6.209 0 4 C 0 1.791 1.779 0 3.975 0 L 8.054 0 C 10.249 0 12.029 1.791 12.029 4 Z" fill="rgb(102, 102, 102)" height="8px" id="L2nX9ytu0" transform="translate(10.699 78)" width="12.028699999999999px"/><path d="M 10.146 4 C 10.146 2.837 9.209 1.895 8.054 1.895 L 3.975 1.895 C 2.819 1.895 1.883 2.837 1.883 4 C 1.883 5.163 2.819 6.105 3.975 6.105 L 8.054 6.105 C 9.209 6.105 10.146 5.163 10.146 4 Z M 12.029 4 C 12.029 6.209 10.249 8 8.054 8 L 3.975 8 C 1.78 8 0 6.209 0 4 C 0 1.791 1.78 0 3.975 0 L 8.054 0 C 10.249 0 12.029 1.791 12.029 4 Z" fill="rgb(102, 102, 102)" height="8px" id="oXi2C69KP" transform="translate(35.175 78)" width="12.0287px"/><path d="M 0 4.632 L 0 0 L 1.883 0 L 1.883 4.632 C 1.883 5.445 2.538 6.105 3.347 6.105 L 8.681 6.105 C 9.49 6.105 10.146 5.445 10.146 4.632 L 10.146 0 L 12.029 0 L 12.029 4.632 C 12.029 6.492 10.531 8 8.681 8 L 3.347 8 C 1.499 8 0 6.492 0 4.632 Z" fill="rgb(102, 102, 102)" height="8px" id="LwiLir5UI" transform="translate(71.889 78)" width="12.0287px"/><path d="M 0 4 C 0 1.791 1.779 0 3.974 0 L 11.401 0 L 11.401 1.895 L 3.974 1.895 C 2.819 1.895 1.882 2.837 1.882 4 C 1.882 5.163 2.819 6.105 3.974 6.105 L 9.571 6.105 C 9.888 6.105 10.146 5.846 10.146 5.526 C 10.146 5.207 9.888 4.947 9.571 4.947 L 3.451 4.947 L 3.451 3.053 L 9.571 3.053 C 10.928 3.053 12.029 4.16 12.029 5.526 C 12.029 6.892 10.928 8 9.571 8 L 3.974 8 C 1.779 8 0 6.209 0 4 Z" fill="rgb(102, 102, 102)" height="8px" id="BfoOXPmRo" transform="translate(23.043 78)" width="12.028699999999997px"/><path d="M 10.729 0 C 11.714 0 12.586 0.643 12.882 1.589 L 14.89 8 L 12.916 8 L 11.086 2.159 C 11.037 2.002 10.892 1.895 10.729 1.895 C 10.568 1.895 10.426 1.997 10.374 2.148 L 10.365 2.179 L 9.251 6.554 C 9.035 7.405 8.272 8 7.399 8 C 6.512 8 5.741 7.385 5.538 6.515 L 4.528 2.177 C 4.49 2.012 4.344 1.895 4.175 1.895 C 4.017 1.895 3.877 1.998 3.829 2.149 L 1.976 8 L 0 8 L 2.035 1.574 C 2.332 0.636 3.198 0 4.175 0 C 5.218 0 6.124 0.723 6.362 1.745 L 7.371 6.083 C 7.375 6.096 7.386 6.105 7.399 6.105 C 7.413 6.105 7.424 6.096 7.427 6.084 L 8.541 1.709 L 8.554 1.662 C 8.825 0.681 9.713 0 10.729 0 Z" fill="rgb(102, 102, 102)" height="8px" id="txoLtWx1_" transform="translate(83.708 78)" width="14.8904px"/></svg>