<svg display="block" role="presentation" viewBox="0 0 100 100" xmlns="http://www.w3.org/2000/svg"><path d="M 39.236 32 C 45.87 32 51.248 26.627 51.248 20 C 51.248 13.372 45.87 8 39.236 8 C 33.011 8 27.892 12.732 27.285 18.792 C 24.831 17.683 22.18 17.021 19.465 16.846 C 20.979 7.299 29.255 0 39.236 0 C 50.292 0 59.255 8.954 59.255 20 C 59.255 30.643 50.934 39.344 40.438 39.964 L 40.438 40 L 27.245 40 L 27.245 38.254 C 27.245 35.987 26.309 33.782 24.593 32.133 C 22.873 30.48 20.51 29.527 18.017 29.527 C 15.524 29.527 13.16 30.48 11.44 32.133 C 9.725 33.782 8.789 35.987 8.789 38.254 L 8.789 40 L 0 40 L 0 38.212 C 0 33.537 1.942 29.09 5.338 25.84 C 8.626 22.693 13.017 20.91 17.587 20.805 C 17.73 20.802 17.873 20.8 18.017 20.8 C 18.128 20.8 18.238 20.801 18.349 20.803 C 22.955 20.885 27.384 22.671 30.695 25.84 C 32.529 27.595 33.939 29.699 34.848 32 Z" fill="rgb(102, 102, 102)" height="39.9997px" id="ZVzTvcBfX" transform="translate(21.101 14)" width="59.255px"/><path d="M 8.885 1.325 C 9.861 2.172 10.41 3.323 10.41 4.522 L 10.41 6.4 L 0 6.4 L 0 4.522 C 0 3.323 0.548 2.172 1.524 1.325 C 2.501 0.476 3.825 0 5.205 0 C 6.585 0 7.909 0.476 8.885 1.325 Z" fill="rgb(102, 102, 102)" height="6.399999999999999px" id="tu7hU5X0u" transform="translate(33.913 47.6)" width="10.4097px"/><path d="M 11.793 5.236 C 10.345 5.236 9.172 4.064 9.172 2.618 L 9.172 1.964 C 9.172 0.879 8.292 0 7.207 0 C 6.121 0 5.241 0.879 5.241 1.964 L 5.241 2.618 C 5.241 4.064 4.068 5.236 2.621 5.236 L 1.965 5.236 C 0.88 5.236 0 6.116 0 7.2 C 0 8.284 0.88 9.163 1.965 9.163 L 2.621 9.163 C 4.068 9.163 5.241 10.336 5.241 11.782 L 5.241 12.436 C 5.241 13.521 6.121 14.4 7.207 14.4 C 8.292 14.4 9.172 13.521 9.172 12.436 L 9.172 11.782 C 9.172 10.336 10.345 9.163 11.793 9.163 L 12.448 9.163 C 13.533 9.163 14.413 8.284 14.413 7.2 C 14.413 6.116 13.533 5.236 12.448 5.236 Z" fill="rgb(102, 102, 102)" height="14.399899999999999px" id="wvQ2QtyMh" transform="translate(53.129 26.8)" width="14.413300000000007px"/><path d="M 11.211 3.2 C 11.211 4.967 12.645 6.4 14.413 6.4 L 15.214 6.4 C 16.541 6.4 17.616 7.474 17.616 8.8 C 17.616 10.125 16.541 11.2 15.214 11.2 L 14.413 11.2 C 12.645 11.2 11.211 12.633 11.211 14.4 L 11.211 15.2 C 11.211 16.525 10.135 17.6 8.808 17.6 C 7.482 17.6 6.406 16.525 6.406 15.2 L 6.406 14.4 C 6.406 12.633 4.972 11.2 3.203 11.2 L 2.402 11.2 C 1.076 11.2 0 10.125 0 8.8 C 0 7.474 1.076 6.4 2.402 6.4 L 3.203 6.4 C 4.972 6.4 6.406 4.967 6.406 3.2 L 6.406 2.4 C 6.406 1.075 7.482 0 8.808 0 C 10.135 0 11.211 1.075 11.211 2.4 Z" fill="rgb(102, 102, 102)" height="17.5999px" id="lmW2J4Cc3" transform="translate(21.101 14)" width="17.616300000000003px"/><path d="M 1.883 0 L 1.883 8 L 0 8 L 0 0 Z" fill="rgb(102, 102, 102)" height="8px" id="MilwWDVzF" transform="translate(47.927 78)" width="1.882799999999996px"/><path d="M 1.883 5.894 L 9.309 5.894 L 9.309 7.789 L 0 7.789 L 0 0 L 1.883 0 Z" fill="rgb(102, 102, 102)" height="7.789200000000008px" id="D6fPC2HMy" transform="translate(1.8 78.21)" width="9.30943px"/><path d="M 8.368 5.526 C 8.368 5.207 8.11 4.947 7.793 4.947 L 2.458 4.947 C 1.1 4.947 0 3.84 0 2.474 C 0 1.108 1.1 0 2.458 0 L 10.041 0 L 10.041 1.895 L 2.458 1.895 C 2.14 1.895 1.882 2.154 1.882 2.474 C 1.882 2.793 2.14 3.053 2.458 3.053 L 7.793 3.053 C 9.15 3.053 10.25 4.16 10.25 5.526 C 10.25 6.892 9.15 8 7.793 8 L 0.209 8 L 0.209 6.105 L 7.793 6.105 C 8.11 6.105 8.368 5.846 8.368 5.526 Z" fill="rgb(102, 102, 102)" height="8px" id="sreytjj2o" transform="translate(61.421 78)" width="10.250499999999995px"/><path d="M 7.583 0 C 9.23 0 10.565 1.343 10.565 3 C 10.565 4.657 9.23 6 7.583 6 L 1.883 6 L 1.883 8 L 0 8 L 0 0 Z M 1.883 4.105 L 7.583 4.105 C 8.19 4.105 8.682 3.61 8.682 3 C 8.682 2.39 8.19 1.895 7.583 1.895 L 1.883 1.895 Z" fill="rgb(102, 102, 102)" height="8px" id="OithoB0CJ" transform="translate(50.44 78)" width="10.564799999999998px"/><path d="M 10.146 4 C 10.146 2.837 9.209 1.895 8.054 1.895 L 3.975 1.895 C 2.819 1.895 1.883 2.837 1.883 4 C 1.883 5.163 2.819 6.105 3.975 6.105 L 8.054 6.105 C 9.209 6.105 10.146 5.163 10.146 4 Z M 12.029 4 C 12.029 6.209 10.249 8 8.054 8 L 3.975 8 C 1.779 8 0 6.209 0 4 C 0 1.791 1.779 0 3.975 0 L 8.054 0 C 10.249 0 12.029 1.791 12.029 4 Z" fill="rgb(102, 102, 102)" height="8px" id="n9Nmb9nIj" transform="translate(10.9 78)" width="12.028699999999999px"/><path d="M 10.146 4 C 10.146 2.837 9.209 1.895 8.054 1.895 L 3.975 1.895 C 2.819 1.895 1.883 2.837 1.883 4 C 1.883 5.163 2.819 6.105 3.975 6.105 L 8.054 6.105 C 9.209 6.105 10.146 5.163 10.146 4 Z M 12.029 4 C 12.029 6.209 10.249 8 8.054 8 L 3.975 8 C 1.78 8 0 6.209 0 4 C 0 1.791 1.78 0 3.975 0 L 8.054 0 C 10.249 0 12.029 1.791 12.029 4 Z" fill="rgb(102, 102, 102)" height="8px" id="f9TZ0UYQ1" transform="translate(35.377 78)" width="12.028599999999997px"/><path d="M 0 4.632 L 0 0 L 1.883 0 L 1.883 4.632 C 1.883 5.445 2.538 6.105 3.347 6.105 L 8.681 6.105 C 9.49 6.105 10.146 5.445 10.146 4.632 L 10.146 0 L 12.029 0 L 12.029 4.632 C 12.029 6.492 10.531 8 8.681 8 L 3.347 8 C 1.499 8 0 6.492 0 4.632 Z" fill="rgb(102, 102, 102)" height="8px" id="SV2X7D1gC" transform="translate(72.09 78)" width="12.0287px"/><path d="M 0 4 C 0 1.791 1.779 0 3.974 0 L 11.401 0 L 11.401 1.895 L 3.974 1.895 C 2.819 1.895 1.882 2.837 1.882 4 C 1.882 5.163 2.819 6.105 3.974 6.105 L 9.571 6.105 C 9.888 6.105 10.146 5.846 10.146 5.526 C 10.146 5.207 9.888 4.947 9.571 4.947 L 3.451 4.947 L 3.451 3.053 L 9.571 3.053 C 10.928 3.053 12.029 4.16 12.029 5.526 C 12.029 6.892 10.928 8 9.571 8 L 3.974 8 C 1.779 8 0 6.209 0 4 Z" fill="rgb(102, 102, 102)" height="8px" id="WpMxMcSp8" transform="translate(23.244 78)" width="12.0287px"/><path d="M 10.729 0 C 11.714 0 12.586 0.643 12.882 1.589 L 14.89 8 L 12.916 8 L 11.086 2.159 C 11.037 2.002 10.892 1.895 10.729 1.895 C 10.568 1.895 10.426 1.997 10.374 2.148 L 10.365 2.179 L 9.251 6.554 C 9.035 7.405 8.272 8 7.399 8 C 6.512 8 5.741 7.385 5.538 6.515 L 4.528 2.177 C 4.49 2.012 4.344 1.895 4.175 1.895 C 4.017 1.895 3.877 1.998 3.829 2.149 L 1.976 8 L 0 8 L 2.035 1.574 C 2.332 0.636 3.198 0 4.175 0 C 5.218 0 6.124 0.723 6.362 1.745 L 7.372 6.083 C 7.375 6.096 7.386 6.105 7.399 6.105 C 7.413 6.105 7.424 6.096 7.427 6.084 L 8.541 1.709 L 8.554 1.662 C 8.825 0.681 9.713 0 10.729 0 Z" fill="rgb(102, 102, 102)" height="8px" id="n0qznFVD_" transform="translate(83.909 78)" width="14.8904px"/></svg>