<svg display="block" role="presentation" viewBox="0 0 100 100" xmlns="http://www.w3.org/2000/svg"><g d="M 0 48 L 0 0 L 48 0 L 48 48 Z M 22.743 13.287 C 22.27 9.238 21.771 4.964 21.771 0 L 26.228 0 C 26.228 4.908 25.732 9.177 25.26 13.23 C 24.876 16.534 24.508 19.693 24.44 22.938 C 26.678 20.604 28.636 18.128 30.686 15.536 C 33.215 12.339 35.885 8.963 39.395 5.454 L 42.546 8.605 C 39.076 12.076 35.706 14.743 32.506 17.276 L 32.503 17.278 C 29.897 19.341 27.404 21.315 25.062 23.56 C 28.295 23.492 31.429 23.126 34.713 22.743 C 38.761 22.27 43.036 21.772 48 21.772 L 48 26.228 C 43.092 26.228 38.823 25.732 34.77 25.26 L 34.767 25.26 C 31.464 24.876 28.306 24.508 25.062 24.44 C 27.395 26.676 29.869 28.633 32.46 30.682 L 32.464 30.686 C 35.661 33.215 39.036 35.885 42.546 39.395 L 39.395 42.547 C 35.924 39.076 33.257 35.706 30.724 32.507 L 30.718 32.498 L 30.713 32.492 C 28.653 29.89 26.682 27.401 24.44 25.062 C 24.508 28.307 24.876 31.466 25.26 34.77 C 25.732 38.823 26.228 43.092 26.228 48 L 21.771 48 C 21.771 43.036 22.27 38.762 22.743 34.713 L 22.744 34.706 C 23.126 31.425 23.492 28.293 23.56 25.062 C 21.318 27.401 19.347 29.89 17.286 32.492 L 17.281 32.498 L 17.275 32.507 C 14.743 35.706 12.076 39.076 8.605 42.547 L 5.453 39.395 C 8.963 35.885 12.339 33.215 15.536 30.686 L 15.54 30.682 C 18.131 28.633 20.605 26.676 22.938 24.44 C 19.693 24.508 16.533 24.876 13.23 25.26 C 9.177 25.732 4.908 26.228 0 26.228 L 0 21.772 C 4.964 21.772 9.239 22.27 13.287 22.743 C 16.571 23.126 19.705 23.492 22.938 23.56 C 20.595 21.314 18.101 19.34 15.494 17.276 C 12.294 14.743 8.924 12.076 5.453 8.605 L 8.605 5.454 C 12.115 8.963 14.785 12.339 17.314 15.536 C 19.364 18.128 21.322 20.603 23.56 22.938 C 23.492 19.707 23.126 16.575 22.744 13.294 Z" fill="transparent" height="48px" id="a2Opi_A2l" transform="translate(26.7 14)" width="48px"><path d="M 0 48 L 0 0 L 48 0 L 48 48 Z" fill="transparent" height="48px" id="xhyjQwr9_" width="48px"/><path d="M 22.743 13.287 C 22.27 9.238 21.771 4.964 21.771 0 L 26.228 0 C 26.228 4.908 25.732 9.177 25.26 13.23 C 24.876 16.534 24.508 19.693 24.44 22.938 C 26.678 20.604 28.636 18.128 30.686 15.536 C 33.215 12.339 35.885 8.963 39.395 5.454 L 42.546 8.605 C 39.076 12.076 35.706 14.743 32.506 17.276 L 32.503 17.278 C 29.897 19.341 27.404 21.315 25.062 23.56 C 28.295 23.492 31.429 23.126 34.713 22.743 C 38.761 22.27 43.036 21.772 48 21.772 L 48 26.228 C 43.092 26.228 38.823 25.732 34.77 25.26 L 34.767 25.26 C 31.464 24.876 28.306 24.508 25.062 24.44 C 27.395 26.676 29.869 28.633 32.46 30.682 L 32.464 30.686 C 35.661 33.215 39.036 35.885 42.546 39.395 L 39.395 42.547 C 35.924 39.076 33.257 35.706 30.724 32.507 L 30.718 32.498 L 30.713 32.492 C 28.653 29.89 26.682 27.401 24.44 25.062 C 24.508 28.307 24.876 31.466 25.26 34.77 C 25.732 38.823 26.228 43.092 26.228 48 L 21.771 48 C 21.771 43.036 22.27 38.762 22.743 34.713 L 22.744 34.706 C 23.126 31.425 23.492 28.293 23.56 25.062 C 21.318 27.401 19.347 29.89 17.286 32.492 L 17.281 32.498 L 17.275 32.507 C 14.743 35.706 12.076 39.076 8.605 42.547 L 5.453 39.395 C 8.963 35.885 12.339 33.215 15.536 30.686 L 15.54 30.682 C 18.131 28.633 20.605 26.676 22.938 24.44 C 19.693 24.508 16.533 24.876 13.23 25.26 C 9.177 25.732 4.908 26.228 0 26.228 L 0 21.772 C 4.964 21.772 9.239 22.27 13.287 22.743 C 16.571 23.126 19.705 23.492 22.938 23.56 C 20.595 21.314 18.101 19.34 15.494 17.276 C 12.294 14.743 8.924 12.076 5.453 8.605 L 8.605 5.454 C 12.115 8.963 14.785 12.339 17.314 15.536 C 19.364 18.128 21.322 20.603 23.56 22.938 C 23.492 19.707 23.126 16.575 22.744 13.294 Z" fill="rgb(102, 102, 102)" height="48px" id="RJpuSsyBJ" width="48px"/></g><path d="M 1.883 0 L 1.883 8 L 0 8 L 0 0 Z" fill="rgb(102, 102, 102)" height="8px" id="Iis65iPMG" transform="translate(48.327 78)" width="1.8828999999999994px"/><path d="M 1.883 5.894 L 9.309 5.894 L 9.309 7.789 L 0 7.789 L 0 0 L 1.883 0 Z" fill="rgb(102, 102, 102)" height="7.789200000000008px" id="WXVKirdff" transform="translate(2.2 78.21)" width="9.30942px"/><path d="M 8.368 5.526 C 8.368 5.207 8.11 4.947 7.793 4.947 L 2.458 4.947 C 1.1 4.947 0 3.84 0 2.474 C 0 1.108 1.1 0 2.458 0 L 10.041 0 L 10.041 1.895 L 2.458 1.895 C 2.14 1.895 1.882 2.154 1.882 2.474 C 1.882 2.793 2.14 3.053 2.458 3.053 L 7.793 3.053 C 9.15 3.053 10.25 4.16 10.25 5.526 C 10.25 6.892 9.15 8 7.793 8 L 0.209 8 L 0.209 6.105 L 7.793 6.105 C 8.11 6.105 8.368 5.846 8.368 5.526 Z" fill="rgb(102, 102, 102)" height="8px" id="bHSO84jJW" transform="translate(61.821 78)" width="10.250499999999995px"/><path d="M 7.583 0 C 9.23 0 10.565 1.343 10.565 3 C 10.565 4.657 9.23 6 7.583 6 L 1.883 6 L 1.883 8 L 0 8 L 0 0 Z M 1.883 4.105 L 7.583 4.105 C 8.19 4.105 8.682 3.61 8.682 3 C 8.682 2.39 8.19 1.895 7.583 1.895 L 1.883 1.895 Z" fill="rgb(102, 102, 102)" height="8px" id="JcjnZmBZS" transform="translate(50.839 78)" width="10.564700000000002px"/><path d="M 10.146 4 C 10.146 2.837 9.209 1.895 8.054 1.895 L 3.975 1.895 C 2.819 1.895 1.883 2.837 1.883 4 C 1.883 5.163 2.819 6.105 3.975 6.105 L 8.054 6.105 C 9.209 6.105 10.146 5.163 10.146 4 Z M 12.029 4 C 12.029 6.209 10.249 8 8.054 8 L 3.975 8 C 1.779 8 0 6.209 0 4 C 0 1.791 1.779 0 3.975 0 L 8.054 0 C 10.249 0 12.029 1.791 12.029 4 Z" fill="rgb(102, 102, 102)" height="8px" id="kKjElL18n" transform="translate(11.299 78)" width="12.028699999999999px"/><path d="M 10.146 4 C 10.146 2.837 9.209 1.895 8.054 1.895 L 3.975 1.895 C 2.819 1.895 1.883 2.837 1.883 4 C 1.883 5.163 2.819 6.105 3.975 6.105 L 8.054 6.105 C 9.209 6.105 10.146 5.163 10.146 4 Z M 12.029 4 C 12.029 6.209 10.249 8 8.054 8 L 3.975 8 C 1.78 8 0 6.209 0 4 C 0 1.791 1.78 0 3.975 0 L 8.054 0 C 10.249 0 12.029 1.791 12.029 4 Z" fill="rgb(102, 102, 102)" height="8px" id="CzWN5xy2a" transform="translate(35.776 78)" width="12.0287px"/><path d="M 0 4.632 L 0 0 L 1.883 0 L 1.883 4.632 C 1.883 5.445 2.538 6.105 3.347 6.105 L 8.681 6.105 C 9.49 6.105 10.146 5.445 10.146 4.632 L 10.146 0 L 12.029 0 L 12.029 4.632 C 12.029 6.492 10.531 8 8.681 8 L 3.347 8 C 1.499 8 0 6.492 0 4.632 Z" fill="rgb(102, 102, 102)" height="8px" id="MPxQWerat" transform="translate(72.49 78)" width="12.0287px"/><path d="M 0 4 C 0 1.791 1.779 0 3.974 0 L 11.401 0 L 11.401 1.895 L 3.974 1.895 C 2.819 1.895 1.882 2.837 1.882 4 C 1.882 5.163 2.819 6.105 3.974 6.105 L 9.571 6.105 C 9.888 6.105 10.146 5.846 10.146 5.526 C 10.146 5.207 9.888 4.947 9.571 4.947 L 3.451 4.947 L 3.451 3.053 L 9.571 3.053 C 10.928 3.053 12.029 4.16 12.029 5.526 C 12.029 6.892 10.928 8 9.571 8 L 3.974 8 C 1.779 8 0 6.209 0 4 Z" fill="rgb(102, 102, 102)" height="8px" id="IgHxb5vXT" transform="translate(23.643 78)" width="12.0287px"/><path d="M 10.729 0 C 11.714 0 12.586 0.643 12.882 1.589 L 14.89 8 L 12.916 8 L 11.086 2.159 C 11.037 2.002 10.892 1.895 10.729 1.895 C 10.568 1.895 10.426 1.997 10.374 2.148 L 10.365 2.179 L 9.251 6.554 C 9.035 7.405 8.272 8 7.399 8 C 6.512 8 5.741 7.385 5.538 6.515 L 4.528 2.177 C 4.49 2.012 4.343 1.895 4.175 1.895 C 4.017 1.895 3.877 1.998 3.829 2.149 L 1.976 8 L 0 8 L 2.035 1.574 C 2.332 0.636 3.197 0 4.175 0 C 5.218 0 6.124 0.723 6.361 1.745 L 7.371 6.083 C 7.375 6.096 7.386 6.105 7.399 6.105 C 7.413 6.105 7.424 6.096 7.427 6.084 L 8.541 1.709 L 8.553 1.662 C 8.825 0.681 9.713 0 10.729 0 Z" fill="rgb(102, 102, 102)" height="8px" id="qrtaEAL1F" transform="translate(84.309 78)" width="14.890299999999996px"/></svg>