<svg display="block" role="presentation" viewBox="0 0 20 20" xmlns="http://www.w3.org/2000/svg"><path d="M 2.708 0 C 1.99 0 1.301 0.285 0.793 0.793 C 0.285 1.301 0 1.99 0 2.708 C 0 3.427 0.285 4.116 0.793 4.623 C 1.301 5.131 1.99 5.417 2.708 5.417 C 3.427 5.417 4.116 5.131 4.623 4.623 C 5.131 4.116 5.417 3.427 5.417 2.708 C 5.417 1.99 5.131 1.301 4.623 0.793 C 4.116 0.285 3.427 0 2.708 0 Z" fill="rgb(253, 252, 245)" height="5.41662px" id="icnezplz5" transform="translate(7.288 7.297)" width="5.41671px"/><path d="M 3.302 0.241 C 6.199 -0.08 9.122 -0.08 12.018 0.241 C 13.601 0.417 14.877 1.663 15.063 3.252 C 15.406 6.189 15.406 9.156 15.063 12.093 C 14.877 13.682 13.601 14.927 12.019 15.105 C 9.122 15.426 6.199 15.426 3.302 15.105 C 1.719 14.927 0.444 13.682 0.258 12.094 C -0.086 9.157 -0.086 6.189 0.258 3.252 C 0.444 1.663 1.719 0.417 3.302 0.241 Z M 11.827 2.672 C 11.606 2.672 11.394 2.76 11.238 2.917 C 11.081 3.073 10.993 3.285 10.993 3.506 C 10.993 3.727 11.081 3.939 11.238 4.095 C 11.394 4.251 11.606 4.339 11.827 4.339 C 12.048 4.339 12.26 4.251 12.416 4.095 C 12.572 3.939 12.66 3.727 12.66 3.506 C 12.66 3.285 12.572 3.073 12.416 2.917 C 12.26 2.76 12.048 2.672 11.827 2.672 Z M 4.861 10.471 C 5.604 11.214 6.61 11.631 7.66 11.631 C 8.71 11.631 9.717 11.214 10.459 10.471 C 11.201 9.729 11.618 8.722 11.618 7.672 C 11.618 6.623 11.201 5.616 10.459 4.874 C 9.717 4.131 8.71 3.714 7.66 3.714 C 6.61 3.714 5.604 4.131 4.861 4.874 C 4.119 5.616 3.702 6.623 3.702 7.672 C 3.702 8.722 4.119 9.729 4.861 10.471 Z" fill="rgb(253, 252, 245)" height="15.345870000000001px" id="UuRAMbi7l" transform="translate(2.341 2.332)" width="15.320305px"/></svg>