<svg display="block" role="presentation" viewBox="0 0 20 20" xmlns="http://www.w3.org/2000/svg"><path d="M 1.771 0 C 1.301 0 0.851 0.187 0.519 0.519 C 0.187 0.851 0 1.301 0 1.771 C 0 2.24 0.187 2.691 0.519 3.023 C 0.851 3.355 1.301 3.542 1.771 3.542 C 2.24 3.542 2.691 3.355 3.023 3.023 C 3.355 2.691 3.542 2.24 3.542 1.771 C 3.542 1.301 3.355 0.851 3.023 0.519 C 2.691 0.187 2.24 0 1.771 0 Z M 0.104 5 C 0.077 5 0.05 5.011 0.031 5.031 C 0.011 5.05 0 5.077 0 5.104 L 0 15.938 C 0 15.995 0.047 16.042 0.104 16.042 L 3.438 16.042 C 3.465 16.042 3.492 16.031 3.511 16.011 C 3.531 15.992 3.542 15.965 3.542 15.938 L 3.542 5.104 C 3.542 5.077 3.531 5.05 3.511 5.031 C 3.492 5.011 3.465 5 3.438 5 Z M 5.521 5 C 5.493 5 5.467 5.011 5.447 5.031 C 5.428 5.05 5.417 5.077 5.417 5.104 L 5.417 15.938 C 5.417 15.995 5.463 16.042 5.521 16.042 L 8.854 16.042 C 8.882 16.042 8.908 16.031 8.928 16.011 C 8.947 15.992 8.958 15.965 8.958 15.938 L 8.958 10.104 C 8.958 9.69 9.123 9.292 9.416 8.999 C 9.709 8.706 10.106 8.542 10.521 8.542 C 10.935 8.542 11.333 8.706 11.626 8.999 C 11.919 9.292 12.083 9.69 12.083 10.104 L 12.083 15.938 C 12.083 15.995 12.13 16.042 12.187 16.042 L 15.521 16.042 C 15.548 16.042 15.575 16.031 15.594 16.011 C 15.614 15.992 15.625 15.965 15.625 15.938 L 15.625 8.754 C 15.625 6.732 13.867 5.15 11.854 5.332 C 11.231 5.389 10.622 5.543 10.047 5.789 L 8.958 6.256 L 8.958 5.104 C 8.958 5.077 8.947 5.05 8.928 5.031 C 8.908 5.011 8.882 5 8.854 5 Z" fill="rgb(253, 252, 245)" height="16.0417px" id="ayVf4Ygd6" transform="translate(2.188 1.563)" width="15.624999845581055px"/></svg>