<svg xmlns="http://www.w3.org/2000/svg" width="124" height="33" fill="none"><path fill="#FDFCF5" d="M6.117 32V21.285l18.771-13.71 5.176 3.78 5.185-3.786L24.89 0 0 18.177V32h6.117Z"/><path fill="#FE791A" d="M26.389 32V21.285L45.16 7.575l10.362-.006L45.16 0 20.272 18.177V32h6.117Z"/><path fill="#FDFCF5" d="M42.462 32V19.93h4.335c1.45 0 2.544.26 3.281.782.737.521 1.105 1.349 1.105 2.482 0 .51-.108.958-.323 1.343a2.326 2.326 0 0 1-.952.918c-.408.215-.895.329-1.462.34l-.017-.068c1.031.023 1.83.306 2.397.85.578.533.867 1.235.867 2.108 0 1.1-.368 1.927-1.105 2.482-.737.555-1.785.833-3.145.833h-4.981Zm1.836-1.649h3.094c.76 0 1.349-.153 1.768-.459.43-.317.646-.776.646-1.377 0-.59-.215-1.048-.646-1.377-.42-.329-1.009-.493-1.768-.493h-3.094v3.706Zm0-5.27h2.465c.805 0 1.428-.153 1.87-.459.442-.306.663-.737.663-1.292 0-.59-.215-1.026-.646-1.309-.42-.295-1.048-.442-1.887-.442h-2.465v3.502Zm14.135 7.191c-.952 0-1.785-.181-2.499-.544a3.988 3.988 0 0 1-1.632-1.581c-.374-.68-.56-1.485-.56-2.414v-7.82h1.835v7.82c0 .918.25 1.626.748 2.125.499.487 1.201.731 2.108.731s1.61-.244 2.108-.731c.499-.499.748-1.207.748-2.125v-7.82h1.836v7.82c0 .93-.193 1.734-.578 2.414a3.88 3.88 0 0 1-1.615 1.581c-.703.363-1.536.544-2.499.544ZM65.88 32V19.93h1.836V32H65.88Zm4.594 0V19.93h1.837v11.39l-.97-1.003h6.852V32h-7.718Zm8.995 0V19.93h3.876c1.892 0 3.349.527 4.369 1.581 1.02 1.043 1.53 2.533 1.53 4.471 0 1.927-.505 3.411-1.513 4.454-1 1.043-2.428 1.564-4.286 1.564h-3.977Zm1.835-1.683h2.04c1.338 0 2.335-.357 2.992-1.071.67-.725 1.004-1.813 1.004-3.264 0-1.473-.335-2.567-1.004-3.281-.657-.725-1.654-1.088-2.991-1.088h-2.04v8.704ZM89.582 32l4.352-12.07h2.329L100.614 32h-1.955l-1.105-3.145h-4.93L91.536 32H89.58Zm3.62-4.811h3.792l-1.904-5.508-1.887 5.508ZM101.03 32l4.012-6.052-3.978-6.018h2.159l2.975 4.59 2.924-4.59h2.142l-3.978 5.984L111.315 32h-2.159l-2.992-4.658L103.172 32h-2.142Zm10.689 0 4.352-12.07h2.329L122.752 32h-1.955l-1.105-3.145h-4.93L113.674 32h-1.955Zm3.621-4.811h3.791l-1.904-5.508-1.887 5.508Z"/></svg>