<svg display="block" role="presentation" viewBox="0 0 20 20" xmlns="http://www.w3.org/2000/svg"><path d="M 13.643 5.927 C 13.516 5.75 13.415 5.556 13.342 5.351 C 13.3 5.128 13.29 4.9 13.311 4.675 C 13.364 4.281 13.304 3.88 13.137 3.519 C 12.906 3.192 12.585 2.937 12.214 2.785 C 12.011 2.693 11.822 2.573 11.652 2.427 C 11.507 2.258 11.387 2.069 11.295 1.866 C 11.143 1.494 10.888 1.174 10.561 0.942 C 10.2 0.776 9.8 0.716 9.406 0.769 C 9.18 0.79 8.952 0.78 8.729 0.738 C 8.524 0.665 8.33 0.564 8.153 0.437 C 7.832 0.188 7.445 0.036 7.04 0 C 6.635 0.036 6.248 0.188 5.926 0.437 C 5.75 0.564 5.556 0.665 5.351 0.738 C 5.128 0.779 4.9 0.79 4.674 0.769 C 4.281 0.716 3.88 0.776 3.519 0.942 C 3.192 1.174 2.937 1.494 2.785 1.866 C 2.693 2.069 2.573 2.258 2.427 2.427 C 2.258 2.573 2.069 2.693 1.866 2.785 C 1.494 2.937 1.174 3.192 0.942 3.519 C 0.776 3.88 0.716 4.28 0.769 4.674 C 0.79 4.9 0.78 5.128 0.738 5.351 C 0.665 5.556 0.564 5.75 0.437 5.927 C 0.188 6.248 0.036 6.635 0 7.04 C 0.036 7.445 0.188 7.832 0.437 8.154 C 0.564 8.33 0.665 8.524 0.738 8.729 C 0.78 8.952 0.79 9.18 0.769 9.405 C 0.716 9.799 0.776 10.2 0.942 10.561 C 1.174 10.888 1.494 11.143 1.866 11.295 C 2.069 11.387 2.258 11.507 2.427 11.653 C 2.573 11.822 2.693 12.011 2.785 12.214 C 2.876 12.397 2.979 12.573 3.096 12.74 L 1.299 17.676 C 1.279 17.733 1.275 17.794 1.287 17.853 C 1.3 17.912 1.329 17.966 1.371 18.009 C 1.413 18.052 1.467 18.083 1.525 18.097 C 1.584 18.111 1.645 18.108 1.703 18.089 L 3.401 17.515 L 4.333 19.046 C 4.362 19.093 4.402 19.132 4.45 19.159 C 4.498 19.186 4.552 19.2 4.607 19.2 C 4.617 19.2 4.628 19.199 4.638 19.198 C 4.698 19.192 4.756 19.17 4.803 19.133 C 4.851 19.096 4.887 19.046 4.908 18.989 L 6.711 14.034 C 6.926 14.095 7.154 14.095 7.369 14.034 L 9.172 18.989 C 9.193 19.046 9.229 19.096 9.277 19.133 C 9.324 19.17 9.382 19.192 9.442 19.198 C 9.452 19.199 9.463 19.2 9.473 19.2 C 9.528 19.2 9.582 19.186 9.63 19.159 C 9.678 19.132 9.718 19.093 9.747 19.046 L 10.679 17.515 L 12.377 18.089 C 12.435 18.108 12.496 18.111 12.555 18.097 C 12.613 18.082 12.667 18.052 12.709 18.009 C 12.751 17.966 12.78 17.912 12.793 17.853 C 12.805 17.794 12.801 17.733 12.781 17.676 L 10.984 12.739 C 11.1 12.572 11.204 12.397 11.295 12.214 C 11.387 12.011 11.507 11.822 11.652 11.652 C 11.822 11.507 12.011 11.387 12.214 11.295 C 12.586 11.143 12.906 10.888 13.138 10.561 C 13.304 10.2 13.364 9.8 13.311 9.406 C 13.29 9.18 13.3 8.952 13.342 8.729 C 13.415 8.524 13.516 8.33 13.643 8.153 C 13.892 7.832 14.044 7.445 14.08 7.04 C 14.044 6.635 13.892 6.248 13.643 5.927 Z M 4.534 18.145 L 3.815 16.963 C 3.777 16.901 3.719 16.854 3.651 16.829 C 3.582 16.804 3.508 16.803 3.439 16.827 L 2.128 17.269 L 3.615 13.185 C 3.953 13.309 4.316 13.352 4.674 13.311 C 4.9 13.29 5.128 13.3 5.351 13.342 C 5.556 13.415 5.75 13.516 5.927 13.643 C 5.992 13.684 6.059 13.726 6.127 13.768 Z M 10.641 16.827 C 10.572 16.803 10.498 16.804 10.429 16.829 C 10.361 16.854 10.303 16.901 10.265 16.963 L 9.546 18.145 L 7.953 13.768 C 8.021 13.726 8.088 13.684 8.153 13.643 C 8.33 13.516 8.524 13.415 8.729 13.342 C 8.952 13.3 9.179 13.29 9.405 13.311 C 9.764 13.353 10.126 13.309 10.465 13.185 L 11.951 17.269 Z M 13.103 7.81 C 12.939 8.04 12.811 8.295 12.724 8.564 C 12.663 8.849 12.645 9.141 12.671 9.431 C 12.712 9.704 12.682 9.983 12.584 10.241 C 12.408 10.458 12.178 10.625 11.918 10.727 C 11.656 10.848 11.414 11.007 11.2 11.2 C 11.007 11.414 10.847 11.656 10.727 11.918 C 10.625 12.178 10.457 12.408 10.24 12.584 C 9.982 12.681 9.704 12.712 9.431 12.671 C 9.141 12.645 8.848 12.663 8.563 12.724 C 8.294 12.811 8.04 12.939 7.81 13.103 C 7.587 13.281 7.322 13.397 7.04 13.44 C 6.758 13.397 6.493 13.281 6.27 13.103 C 6.04 12.939 5.785 12.811 5.516 12.724 C 5.337 12.68 5.152 12.659 4.967 12.663 C 4.86 12.663 4.754 12.668 4.648 12.672 C 4.376 12.712 4.097 12.682 3.839 12.584 C 3.622 12.408 3.455 12.178 3.352 11.918 C 3.232 11.656 3.073 11.414 2.88 11.2 C 2.666 11.007 2.424 10.847 2.162 10.727 C 1.901 10.625 1.672 10.457 1.496 10.24 C 1.398 9.982 1.368 9.704 1.408 9.431 C 1.435 9.141 1.417 8.848 1.356 8.563 C 1.268 8.294 1.141 8.04 0.977 7.81 C 0.799 7.587 0.683 7.322 0.64 7.04 C 0.683 6.758 0.799 6.493 0.977 6.27 C 1.141 6.04 1.269 5.785 1.356 5.516 C 1.417 5.231 1.435 4.939 1.408 4.648 C 1.368 4.376 1.398 4.097 1.496 3.839 C 1.672 3.622 1.902 3.455 2.162 3.352 C 2.424 3.232 2.666 3.073 2.88 2.88 C 3.073 2.666 3.233 2.424 3.353 2.162 C 3.455 1.901 3.623 1.672 3.84 1.496 C 4.097 1.398 4.376 1.368 4.649 1.408 C 4.939 1.435 5.232 1.417 5.517 1.356 C 5.786 1.268 6.04 1.141 6.27 0.977 C 6.493 0.799 6.758 0.683 7.04 0.64 C 7.322 0.683 7.587 0.799 7.81 0.977 C 8.04 1.141 8.295 1.269 8.564 1.356 C 8.849 1.417 9.141 1.435 9.431 1.408 C 9.704 1.368 9.983 1.398 10.241 1.496 C 10.458 1.672 10.625 1.902 10.727 2.162 C 10.848 2.424 11.007 2.666 11.2 2.88 C 11.414 3.073 11.656 3.233 11.918 3.353 C 12.178 3.455 12.408 3.623 12.584 3.84 C 12.682 4.097 12.712 4.376 12.671 4.649 C 12.645 4.939 12.663 5.232 12.724 5.517 C 12.811 5.786 12.939 6.04 13.103 6.27 C 13.281 6.493 13.397 6.758 13.44 7.04 C 13.397 7.322 13.281 7.587 13.103 7.81 Z" fill="rgb(18, 18, 18)" height="19.200000000000003px" id="ud5Agyodf" transform="translate(3.2 0.4)" width="14.079840000000015px"/><path d="M 5.12 0 C 4.107 0 3.117 0.3 2.275 0.863 C 1.433 1.425 0.777 2.225 0.39 3.161 C 0.002 4.096 -0.099 5.126 0.098 6.119 C 0.296 7.112 0.784 8.024 1.5 8.74 C 2.216 9.456 3.128 9.944 4.121 10.142 C 5.114 10.339 6.144 10.238 7.079 9.85 C 8.015 9.463 8.814 8.806 9.377 7.964 C 9.94 7.122 10.24 6.133 10.24 5.12 C 10.238 3.763 9.698 2.461 8.739 1.501 C 7.779 0.541 6.477 0.002 5.12 0 Z M 5.12 9.6 C 4.234 9.6 3.368 9.337 2.631 8.845 C 1.894 8.353 1.32 7.653 0.981 6.834 C 0.642 6.016 0.553 5.115 0.726 4.246 C 0.899 3.377 1.326 2.579 1.952 1.952 C 2.579 1.326 3.377 0.899 4.246 0.726 C 5.115 0.553 6.016 0.642 6.834 0.981 C 7.653 1.32 8.353 1.894 8.845 2.631 C 9.337 3.368 9.6 4.234 9.6 5.12 C 9.599 6.308 9.126 7.446 8.286 8.286 C 7.446 9.126 6.308 9.599 5.12 9.6 Z" fill="rgb(18, 18, 18)" height="10.239892705099486px" id="gXluC7IbD" transform="translate(5.12 2.32)" width="10.23986722214614px"/><path d="M 4.496 1.909 L 3.635 0.164 C 3.605 0.114 3.563 0.073 3.513 0.044 C 3.463 0.015 3.406 0 3.348 0 C 3.29 0 3.233 0.015 3.183 0.044 C 3.132 0.073 3.09 0.114 3.061 0.164 L 2.2 1.909 L 0.274 2.189 C 0.215 2.198 0.159 2.223 0.114 2.261 C 0.068 2.3 0.034 2.35 0.016 2.407 C -0.003 2.464 -0.005 2.524 0.009 2.582 C 0.024 2.64 0.054 2.693 0.096 2.735 L 1.49 4.093 L 1.161 6.012 C 1.151 6.07 1.158 6.131 1.18 6.186 C 1.203 6.242 1.24 6.289 1.289 6.325 C 1.337 6.36 1.394 6.38 1.453 6.385 C 1.513 6.389 1.573 6.377 1.625 6.349 L 3.348 5.443 L 5.07 6.349 C 5.123 6.377 5.183 6.389 5.242 6.385 C 5.302 6.38 5.359 6.36 5.407 6.324 C 5.456 6.289 5.493 6.241 5.516 6.186 C 5.538 6.131 5.545 6.07 5.535 6.012 L 5.206 4.093 L 6.599 2.735 C 6.642 2.693 6.672 2.64 6.687 2.582 C 6.701 2.524 6.699 2.463 6.68 2.407 C 6.662 2.35 6.628 2.3 6.582 2.261 C 6.537 2.223 6.481 2.198 6.422 2.189 Z M 4.639 3.753 C 4.601 3.789 4.574 3.833 4.558 3.883 C 4.542 3.932 4.538 3.985 4.547 4.036 L 4.795 5.481 L 3.497 4.798 C 3.451 4.774 3.4 4.762 3.348 4.762 C 3.296 4.762 3.245 4.774 3.199 4.798 L 1.902 5.481 L 2.149 4.036 C 2.158 3.985 2.154 3.932 2.138 3.883 C 2.122 3.833 2.095 3.789 2.057 3.753 L 1.008 2.729 L 2.458 2.518 C 2.51 2.511 2.559 2.491 2.601 2.46 C 2.643 2.43 2.676 2.39 2.699 2.343 L 3.348 1.029 L 3.997 2.343 C 4.02 2.39 4.054 2.43 4.096 2.461 C 4.137 2.491 4.186 2.511 4.238 2.518 L 5.689 2.729 Z" fill="rgb(18, 18, 18)" height="6.385556787303861px" id="Tmn_zH2RX" transform="translate(6.892 3.934)" width="6.695930984061454px"/></svg>