<svg display="block" role="presentation" viewBox="0 0 20 20" xmlns="http://www.w3.org/2000/svg"><g d="M 0 20 L 0 0 L 20 0 L 20 20 Z M 0 11.427 L 4.286 11.427 L 1.429 17.142 L 5.714 17.142 L 8.571 11.427 L 8.571 2.856 L 0 2.856 Z M 11.429 2.856 L 11.429 11.427 L 15.714 11.427 L 12.857 17.142 L 17.143 17.142 L 20 11.427 L 20 2.856 Z" fill="transparent" height="20px" id="izBE2xkok" width="20.000056199815546px"><path d="M 0 20 L 0 0 L 20 0 L 20 20 Z" fill="transparent" height="20px" id="YZGlasMLa" width="20px"/><path d="M 0 8.571 L 4.286 8.571 L 1.429 14.286 L 5.714 14.286 L 8.571 8.571 L 8.571 0 L 0 0 Z" fill="rgb(253, 252, 245)" height="14.285655555555556px" id="ctdsihS7W" transform="translate(0 2.856)" width="8.571444444444438px"/><path d="M 0 0 L 0 8.571 L 4.286 8.571 L 1.429 14.286 L 5.714 14.286 L 8.571 8.571 L 8.571 0 Z" fill="rgb(253, 252, 245)" height="14.285655555555556px" id="DvjLADgb1" transform="translate(11.429 2.856)" width="8.571444444444454px"/></g></svg>