<svg display="block" role="presentation" viewBox="0 0 20 20" xmlns="http://www.w3.org/2000/svg"><g d="M 0 20 L 0 0 L 20 0 L 20 20 Z M 11.575 9.971 L 16.827 9.971 C 17.489 9.971 18.032 10.513 18.032 11.175 C 18.032 11.839 17.489 12.38 16.827 12.38 C 17.489 12.38 18.032 12.923 18.032 13.585 C 18.032 14.248 17.489 14.789 16.827 14.789 C 17.489 14.789 18.032 15.332 18.032 15.994 C 18.032 16.657 17.489 17.2 16.827 17.2 L 15.91 17.2 C 16.572 17.2 17.115 17.741 17.115 18.405 C 17.115 19.067 16.572 19.609 15.91 19.609 L 10.461 19.609 C 9.199 19.609 6.968 18.98 5.996 18.159 M 5.996 11.182 C 8.301 9.712 9.006 7.959 9.449 5.162 C 9.589 4.276 9.849 3.433 11.112 4.064 C 11.942 4.478 12.66 5.875 12.253 7.412 L 11.575 9.97 M 16.827 12.38 L 15.185 12.38 M 16.827 14.79 L 15.185 14.79 M 15.91 17.201 L 15.185 17.201 M 5.302 19.294 L 2.662 19.294 C 2.281 19.294 1.968 18.982 1.968 18.601 L 1.968 10.742 C 1.968 10.361 2.281 10.049 2.662 10.049 L 5.302 10.049 C 5.683 10.049 5.996 10.361 5.996 10.742 L 5.996 18.601 C 5.996 18.982 5.683 19.294 5.302 19.294 Z M 5.996 11.183 L 5.996 18.159 M 4.073 12.214 L 4.073 12.216 M 7.303 2.25 L 6.609 1.634 M 14.381 2.25 L 15.075 1.634 M 10.842 1.319 L 10.842 0.391 M 5.11 5.013 L 6.038 5.052 M 16.574 5.013 L 15.647 5.052" fill="transparent" height="20px" id="uPS5KxVcb" width="20px"><path d="M 0 20 L 0 0 L 20 0 L 20 20 Z" fill="transparent" height="20px" id="chsC4tyZD" width="20px"/><path d="M 5.579 0 L 10.831 0 C 11.493 0 12.036 0.543 12.036 1.205 C 12.036 1.868 11.493 2.409 10.831 2.409 C 11.493 2.409 12.036 2.952 12.036 3.614 C 12.036 4.277 11.493 4.819 10.831 4.819 C 11.493 4.819 12.036 5.361 12.036 6.024 C 12.036 6.687 11.493 7.229 10.831 7.229 L 9.914 7.229 C 10.577 7.229 11.119 7.771 11.119 8.434 C 11.119 9.096 10.577 9.639 9.914 9.639 L 4.466 9.639 C 3.203 9.639 0.972 9.01 0 8.188" fill="transparent" height="9.638666666666666px" id="bPtjH1oW4" stroke-dasharray="" stroke-linecap="round" stroke-linejoin="round" stroke-width="0.83" stroke="rgb(18, 18, 18)" transform="translate(5.996 9.971)" width="12.035900000000007px"/><path d="M 0 7.338 C 2.305 5.868 3.011 4.115 3.454 1.318 C 3.593 0.432 3.853 -0.412 5.117 0.219 C 5.946 0.633 6.665 2.031 6.257 3.568 L 5.58 6.126" fill="transparent" height="7.33801617915562px" id="sO3AQXDLU" stroke-dasharray="" stroke-linecap="round" stroke-linejoin="round" stroke-width="0.83" stroke="rgb(18, 18, 18)" transform="translate(5.996 3.844)" width="6.374655138944004px"/><path d="M 1.642 0 L 0 0" fill="transparent" height="1px" id="M5p6n42Zb" stroke-dasharray="" stroke-linecap="round" stroke-linejoin="round" stroke-width="0.83" stroke="rgb(18, 18, 18)" transform="translate(15.185 12.38)" width="1.6420833333333462px"/><path d="M 1.642 0 L 0 0" fill="transparent" height="1px" id="ZMfeLHn4R" stroke-dasharray="" stroke-linecap="round" stroke-linejoin="round" stroke-width="0.83" stroke="rgb(18, 18, 18)" transform="translate(15.185 14.79)" width="1.6420833333333462px"/><path d="M 0.725 0 L 0 0" fill="transparent" height="1px" id="kbZ2dkyLf" stroke-dasharray="" stroke-linecap="round" stroke-linejoin="round" stroke-width="0.83" stroke="rgb(18, 18, 18)" transform="translate(15.185 17.2)" width="1px"/><path d="M 3.334 9.246 L 0.693 9.246 C 0.312 9.246 0 8.933 0 8.552 L 0 0.693 C 0 0.312 0.312 0 0.693 0 L 3.334 0 C 3.715 0 4.027 0.312 4.027 0.693 L 4.027 8.553 C 4.027 8.933 3.715 9.246 3.334 9.246 Z" fill="transparent" height="9.245583333333338px" id="C6KocmC_v" stroke-dasharray="" stroke-linecap="round" stroke-linejoin="round" stroke-width="0.83" stroke="rgb(18, 18, 18)" transform="translate(1.968 10.049)" width="4.027150000000006px"/><path d="M 0 0 L 0 6.976" fill="transparent" height="6.9757500000000014px" id="Iwu1lpKom" stroke-dasharray="" stroke-linecap="round" stroke-linejoin="round" stroke-width="0.83" stroke="rgb(18, 18, 18)" transform="translate(5.996 11.183)" width="1px"/><path d="M 0 0 L 0 0.002" fill="transparent" height="1px" id="finEHRKVU" stroke-dasharray="" stroke-linecap="round" stroke-linejoin="round" stroke-width="0.83" stroke="rgb(18, 18, 18)" transform="translate(4.073 12.214)" width="1px"/><path d="M 0.694 0.616 L 0 0 M 7.772 0.616 L 8.466 0" fill="transparent" height="1px" id="La1vkNLbh" stroke-dasharray="" stroke-linecap="round" stroke-linejoin="round" stroke-width="0.83" stroke="rgb(18, 18, 18)" transform="translate(6.609 1.634)" width="8.466158283233643px"/><path d="M 0 0.928 L 0 0" fill="transparent" height="1px" id="lS890usII" stroke-dasharray="" stroke-linecap="round" stroke-linejoin="round" stroke-width="0.83" stroke="rgb(18, 18, 18)" transform="translate(10.842 0.391)" width="1px"/><path d="M 0 0 L 0.928 0.039" fill="transparent" height="1px" id="AnodRtLQH" stroke-dasharray="" stroke-linecap="round" stroke-linejoin="round" stroke-width="0.83" stroke="rgb(18, 18, 18)" transform="translate(5.11 5.013)" width="1px"/><path d="M 0.928 0 L 0 0.039" fill="transparent" height="1px" id="fmkc9RYBr" stroke-dasharray="" stroke-linecap="round" stroke-linejoin="round" stroke-width="0.83" stroke="rgb(18, 18, 18)" transform="translate(15.647 5.013)" width="1px"/></g></svg>