<svg display="block" role="presentation" viewBox="0 0 20 20" xmlns="http://www.w3.org/2000/svg"><path d="M 17.433 1.667 C 16.792 1.958 16.1 2.15 15.383 2.242 C 16.117 1.8 16.683 1.1 16.95 0.258 C 16.258 0.675 15.492 0.967 14.683 1.133 C 14.025 0.417 13.1 0 12.05 0 C 10.092 0 8.492 1.6 8.492 3.575 C 8.492 3.858 8.525 4.133 8.583 4.392 C 5.617 4.242 2.975 2.817 1.217 0.658 C 0.908 1.183 0.733 1.8 0.733 2.45 C 0.733 3.692 1.358 4.792 2.325 5.417 C 1.733 5.417 1.183 5.25 0.7 5 L 0.7 5.025 C 0.7 6.758 1.933 8.208 3.567 8.533 C 3.042 8.677 2.492 8.697 1.958 8.592 C 2.185 9.302 2.628 9.924 3.226 10.369 C 3.824 10.815 4.546 11.061 5.292 11.075 C 4.028 12.075 2.462 12.616 0.85 12.608 C 0.567 12.608 0.283 12.592 0 12.558 C 1.583 13.575 3.467 14.167 5.483 14.167 C 12.05 14.167 15.658 8.717 15.658 3.992 C 15.658 3.833 15.658 3.683 15.65 3.525 C 16.35 3.025 16.95 2.392 17.433 1.667 Z" fill="rgb(253, 252, 245)" height="14.16668px" id="J1cV4MK2j" transform="translate(1.281 3.324)" width="17.43335px"/></svg>