<svg display="block" role="presentation" viewBox="0 0 20 20" xmlns="http://www.w3.org/2000/svg"><g d="M 0 20 L 0 0 L 20 0 L 20 20 Z M 10 0 C 13.738 0 15.608 0 17 0.804 C 17.912 1.33 18.67 2.088 19.196 3 C 20 4.392 20 6.262 20 10 C 20 13.738 20 15.608 19.196 17 C 18.67 17.912 17.912 18.67 17 19.196 C 15.608 20 13.738 20 10 20 C 6.262 20 4.392 20 3 19.196 C 2.088 18.67 1.33 17.912 0.804 17 C 0 15.608 0 13.738 0 10 C 0 6.262 0 4.392 0.804 3 C 1.33 2.088 2.088 1.33 3 0.804 C 4.392 0 6.262 0 10 0 Z M 11 2 C 6.582 2 3 5.582 3 10 C 3 14.418 6.582 18 11 18 C 15.418 18 19 14.418 19 10 C 19 5.582 15.418 2 11 2 Z M 18 10 C 18 12.761 15.761 15 13 15 C 10.239 15 8 12.761 8 10 C 8 7.239 10.239 5 13 5 C 15.761 5 18 7.239 18 10 Z" fill="transparent" height="20px" id="ALTeFc7ae" width="20px"><path d="M 0 20 L 0 0 L 20 0 L 20 20 Z" fill="transparent" height="20px" id="XtHrZ3r6C" width="20px"/><path d="M 10 0 C 13.738 0 15.608 0 17 0.804 C 17.912 1.33 18.67 2.088 19.196 3 C 20 4.392 20 6.262 20 10 C 20 13.738 20 15.608 19.196 17 C 18.67 17.912 17.912 18.67 17 19.196 C 15.608 20 13.738 20 10 20 C 6.262 20 4.392 20 3 19.196 C 2.088 18.67 1.33 17.912 0.804 17 C 0 15.608 0 13.738 0 10 C 0 6.262 0 4.392 0.804 3 C 1.33 2.088 2.088 1.33 3 0.804 C 4.392 0 6.262 0 10 0 Z M 11 2 C 6.582 2 3 5.582 3 10 C 3 14.418 6.582 18 11 18 C 15.418 18 19 14.418 19 10 C 19 5.582 15.418 2 11 2 Z" fill="rgb(153, 153, 153)" height="20px" id="w8sNa9oWB" transform="translate(0 0)" width="20px"/><path d="M 10 5 C 10 7.761 7.761 10 5 10 C 2.239 10 0 7.761 0 5 C 0 2.239 2.239 0 5 0 C 7.761 0 10 2.239 10 5 Z" fill="rgb(153, 153, 153)" height="10px" id="ewX2Yz_uI" transform="translate(8 5)" width="10.000000000000002px"/></g></svg>