<svg display="block" role="presentation" viewBox="0 0 20 20" xmlns="http://www.w3.org/2000/svg"><path d="M 9.157 0 C 8.828 0 8.5 0.018 8.173 0.053 C 7.873 0.083 7.578 0.134 7.286 0.195 C 7.229 0.206 7.173 0.219 7.116 0.232 C 5.397 0.623 3.826 1.503 2.594 2.764 C 2.479 2.882 2.367 3.003 2.257 3.127 C -1.072 6.949 -0.672 12.747 3.15 16.076 C 6.809 19.263 12.317 19.051 15.721 15.592 C 15.836 15.474 15.948 15.353 16.057 15.229 C 17.527 13.556 18.336 11.405 18.335 9.178 C 18.335 4.109 14.226 0 9.157 0 Z M 3.002 3.223 C 3.05 3.173 3.1 3.125 3.15 3.076 C 3.206 3.02 3.263 2.964 3.321 2.91 C 3.372 2.862 3.425 2.816 3.477 2.77 C 3.536 2.717 3.595 2.665 3.656 2.614 C 3.709 2.57 3.764 2.526 3.818 2.483 C 3.879 2.434 3.94 2.385 4.003 2.338 C 4.059 2.296 4.116 2.255 4.173 2.216 C 4.236 2.17 4.3 2.124 4.364 2.082 C 4.422 2.042 4.48 2.004 4.539 1.967 C 4.605 1.925 4.67 1.884 4.737 1.844 C 4.797 1.809 4.857 1.774 4.917 1.739 C 4.985 1.701 5.053 1.663 5.121 1.626 C 5.183 1.594 5.244 1.562 5.305 1.531 C 5.375 1.495 5.445 1.461 5.516 1.428 C 5.577 1.399 5.641 1.37 5.704 1.342 C 5.775 1.312 5.848 1.281 5.921 1.251 C 5.984 1.225 6.047 1.199 6.111 1.175 C 6.185 1.147 6.26 1.12 6.335 1.094 C 6.399 1.072 6.463 1.049 6.528 1.028 C 6.604 1.004 6.681 0.981 6.758 0.959 C 6.823 0.94 6.887 0.921 6.951 0.903 C 6.976 0.897 7.001 0.892 7.026 0.885 C 6.12 1.765 5.448 2.856 5.071 4.06 C 4.344 3.869 3.641 3.598 2.974 3.254 C 2.984 3.243 2.993 3.232 3.002 3.223 Z M 2.562 3.716 C 3.297 4.114 4.076 4.424 4.884 4.639 C 4.488 6.016 4.28 7.44 4.266 8.872 L 0.598 8.872 C 0.664 6.983 1.355 5.17 2.562 3.716 Z M 2.562 14.641 C 1.355 13.186 0.665 11.373 0.598 9.484 L 4.266 9.484 C 4.28 10.916 4.488 12.34 4.884 13.717 C 4.076 13.932 3.297 14.242 2.562 14.641 Z M 6.95 17.454 C 6.888 17.438 6.824 17.418 6.76 17.399 C 6.683 17.377 6.605 17.354 6.529 17.329 C 6.464 17.309 6.4 17.286 6.337 17.264 C 6.262 17.238 6.186 17.211 6.112 17.183 C 6.048 17.159 5.986 17.133 5.923 17.108 C 5.849 17.077 5.776 17.046 5.704 17.016 C 5.641 16.988 5.579 16.96 5.518 16.931 C 5.446 16.897 5.375 16.863 5.303 16.827 C 5.242 16.797 5.181 16.766 5.12 16.733 C 5.051 16.696 4.982 16.658 4.914 16.619 C 4.852 16.585 4.794 16.55 4.735 16.514 C 4.668 16.474 4.602 16.432 4.536 16.39 C 4.478 16.353 4.42 16.315 4.362 16.277 C 4.297 16.233 4.233 16.187 4.169 16.141 C 4.113 16.101 4.057 16.061 4.002 16.018 C 3.938 15.971 3.876 15.921 3.814 15.872 C 3.76 15.829 3.706 15.786 3.653 15.742 C 3.592 15.691 3.533 15.638 3.474 15.585 C 3.422 15.539 3.37 15.493 3.319 15.446 C 3.26 15.392 3.204 15.335 3.147 15.279 C 3.098 15.231 3.047 15.183 2.999 15.133 C 2.99 15.123 2.982 15.113 2.973 15.104 C 3.64 14.759 4.343 14.489 5.069 14.297 C 5.447 15.502 6.119 16.593 7.024 17.472 C 6.999 17.466 6.974 17.461 6.95 17.454 Z M 8.851 17.72 C 7.542 17.534 6.394 16.168 5.672 14.15 C 6.716 13.916 7.781 13.791 8.851 13.776 Z M 8.851 13.164 C 7.716 13.179 6.587 13.314 5.48 13.566 C 5.096 12.239 4.893 10.866 4.878 9.484 L 8.851 9.484 Z M 8.851 8.872 L 4.878 8.872 C 4.893 7.49 5.096 6.117 5.48 4.79 C 6.587 5.042 7.716 5.177 8.851 5.192 Z M 8.851 4.58 C 7.781 4.565 6.716 4.44 5.672 4.206 C 6.394 2.188 7.542 0.822 8.851 0.636 Z M 15.752 3.716 C 16.959 5.17 17.649 6.983 17.716 8.872 L 14.048 8.872 C 14.034 7.44 13.826 6.016 13.43 4.639 C 14.238 4.424 15.017 4.114 15.752 3.716 Z M 11.362 0.902 C 11.426 0.918 11.49 0.938 11.554 0.957 C 11.631 0.979 11.709 1.002 11.785 1.027 C 11.85 1.047 11.913 1.07 11.977 1.092 C 12.052 1.118 12.128 1.145 12.202 1.173 C 12.266 1.197 12.328 1.223 12.391 1.248 C 12.464 1.279 12.537 1.31 12.61 1.34 C 12.672 1.368 12.735 1.396 12.796 1.425 C 12.868 1.459 12.939 1.493 13.01 1.529 C 13.072 1.559 13.133 1.59 13.194 1.623 C 13.263 1.66 13.332 1.698 13.4 1.737 C 13.461 1.771 13.52 1.806 13.579 1.842 C 13.646 1.882 13.712 1.924 13.778 1.966 C 13.836 2.003 13.894 2.041 13.952 2.079 C 14.017 2.123 14.081 2.169 14.145 2.215 C 14.201 2.255 14.257 2.295 14.313 2.337 C 14.376 2.385 14.437 2.434 14.499 2.484 C 14.553 2.526 14.607 2.569 14.66 2.614 C 14.722 2.665 14.781 2.718 14.84 2.77 C 14.892 2.816 14.944 2.862 14.995 2.909 C 15.053 2.964 15.11 3.02 15.167 3.076 C 15.216 3.125 15.266 3.173 15.315 3.223 C 15.324 3.232 15.332 3.242 15.341 3.251 C 14.674 3.596 13.971 3.867 13.245 4.058 C 12.866 2.854 12.193 1.762 11.287 0.883 C 11.312 0.89 11.337 0.895 11.362 0.902 Z M 9.463 0.636 C 10.772 0.822 11.92 2.188 12.642 4.206 C 11.598 4.44 10.533 4.565 9.463 4.58 Z M 9.463 5.192 C 10.598 5.177 11.727 5.042 12.834 4.79 C 13.218 6.117 13.42 7.49 13.436 8.872 L 9.463 8.872 Z M 9.463 9.484 L 13.436 9.484 C 13.421 10.866 13.218 12.239 12.834 13.566 C 11.727 13.314 10.598 13.179 9.463 13.164 Z M 9.463 17.72 L 9.463 13.776 C 10.533 13.791 11.598 13.916 12.642 14.15 C 11.92 16.168 10.772 17.534 9.463 17.72 Z M 15.312 15.133 C 15.264 15.183 15.214 15.231 15.165 15.28 C 15.108 15.336 15.051 15.392 14.992 15.447 C 14.942 15.494 14.889 15.538 14.837 15.586 C 14.778 15.638 14.719 15.691 14.658 15.742 C 14.605 15.787 14.55 15.83 14.496 15.873 C 14.435 15.922 14.373 15.971 14.31 16.018 C 14.255 16.06 14.198 16.101 14.141 16.14 C 14.078 16.186 14.014 16.232 13.95 16.274 C 13.892 16.314 13.834 16.352 13.775 16.389 C 13.709 16.431 13.643 16.472 13.577 16.511 C 13.516 16.547 13.457 16.582 13.397 16.617 C 13.329 16.655 13.261 16.693 13.193 16.729 C 13.131 16.762 13.07 16.794 13.009 16.825 C 12.939 16.86 12.869 16.894 12.798 16.928 C 12.737 16.957 12.673 16.986 12.61 17.013 C 12.538 17.044 12.466 17.074 12.393 17.105 C 12.33 17.131 12.267 17.156 12.203 17.181 C 12.128 17.209 12.053 17.236 11.978 17.262 C 11.914 17.284 11.851 17.306 11.786 17.327 C 11.71 17.352 11.633 17.375 11.555 17.397 C 11.491 17.416 11.427 17.435 11.362 17.452 C 11.338 17.459 11.313 17.464 11.288 17.47 C 12.194 16.591 12.866 15.5 13.243 14.295 C 13.969 14.487 14.672 14.757 15.34 15.102 C 15.33 15.113 15.321 15.124 15.312 15.133 Z M 15.752 14.641 C 15.017 14.242 14.238 13.932 13.43 13.717 C 13.826 12.34 14.034 10.916 14.048 9.484 L 17.716 9.484 C 17.65 11.373 16.959 13.186 15.752 14.641 Z" fill="rgb(18, 18, 18)" height="18.333362668759996px" id="hmQhXBlYs" transform="translate(0.833 0.833)" width="18.335001537993307px"/></svg>